<svg width="274" height="178" viewBox="0 0 274 178" fill="none" xmlns="http://www.w3.org/2000/svg">
<path d="M0.5 157.563V19.6527C0.5 13.6551 3.17437 8.27806 7.40792 4.62189L267.148 173.26C263.731 175.915 259.427 177.5 254.746 177.5H20.6231C9.50478 177.5 0.5 168.57 0.5 157.563Z" fill="#FFE15A" stroke="black"/>
<path d="M19.2543 0.5H253.377C264.493 0.5 273.5 9.47978 273.5 20.5542V159.257C273.5 165.29 270.825 170.699 266.592 174.377L6.8482 4.76866C10.2664 2.09586 14.572 0.5 19.2543 0.5Z" fill="#FF4B55" stroke="black"/>
<path d="M144.694 74.609C145.242 74.169 145.694 73.6243 145.523 73.1661C145.38 72.786 144.673 72.433 143.925 72.0595C142.537 71.3658 140.682 70.4138 140.066 68.1342C139.993 68.127 139.925 68.1337 139.849 68.1198C139.24 68.0068 138.859 68.2162 138.418 69.6486C138.338 69.9096 138.166 70.329 137.938 70.8089C138.395 71.1114 139.535 71.8146 140.646 72.0673C142.847 72.5654 144.202 73.416 144.694 74.609Z" fill="#FFBE55"/>
<path d="M136.153 73.6393C136.81 74.2389 137.414 74.9193 138.007 75.679C138.041 75.7228 138.078 75.7665 138.113 75.8098C139.587 74.6794 141.461 74.6727 142.766 74.8861C142.387 74.4937 141.65 74.1092 140.254 73.7911C138.959 73.4975 137.705 72.7644 137.085 72.366C136.797 72.8248 136.484 73.2609 136.153 73.6393Z" fill="#FFBE55"/>
<path d="M143.625 80.1273C144.315 80.5268 145.703 81.4256 146.905 82.7222C147.082 81.7248 147.03 80.4005 146.093 79.2352C145.292 79.6785 144.435 79.9588 143.625 80.1273Z" fill="#FFBE55"/>
<path d="M132.133 68.4744L131.901 68.7559C130.748 70.1661 129.44 71.7032 128.19 72.9566C128.951 72.5975 129.847 72.3349 130.777 72.1947C131.11 71.6622 132.123 70.2498 133.367 68.5481C133.067 68.3564 132.471 68.0649 132.133 68.4744Z" fill="#FFBE55"/>
<path d="M127.612 75.6202C127.618 75.6296 127.696 75.7261 127.917 75.8092C128.3 75.9566 129.01 76.0075 129.75 75.6662C131.905 74.6633 134.082 75.2118 136.221 77.282C136.227 77.2881 136.225 77.2981 136.231 77.3042C136.237 77.3103 136.247 77.3086 136.253 77.3147C136.266 77.3274 136.986 78.0494 138.284 78.711C137.66 78.0555 137.1 77.3873 136.615 76.7678C135.84 75.7765 135.169 74.9215 134.37 74.4117C132.344 73.1251 128.814 74.2527 127.816 75.306C127.651 75.4795 127.612 75.5931 127.612 75.6202Z" fill="#FFBE55"/>
<path d="M144.371 76.9008C144.371 76.9008 144.366 76.9013 144.364 76.9024C144.253 76.9545 144.132 76.98 144.008 76.9828C144.002 76.9828 143.997 76.9867 143.991 76.9867C143.978 76.9867 143.967 76.975 143.954 76.9745C143.864 76.9706 143.772 76.9645 143.682 76.9318C143.652 76.9207 140.915 75.9566 139.243 77.1668C139.711 77.6926 140.241 78.178 140.832 78.6207C141.653 78.6396 144.497 78.5908 146.117 77.0775C146.934 76.314 147.004 75.4795 146.866 74.8234C146.262 75.7687 145.192 76.5101 144.371 76.9008Z" fill="#FFBE55"/>
<path d="M119.41 76.0003C119.272 75.8003 119.12 75.6268 119.002 75.3902C118.807 75.0007 118.704 74.5873 118.601 74.1751C117.972 75.1813 117.31 76.7473 117.712 78.4805C118.186 77.359 118.902 76.5068 119.41 76.0003Z" fill="#FFBE55"/>
<path d="M134.696 72.6258C135.493 71.7935 136.474 69.9461 136.726 69.1266C136.968 68.3359 137.706 65.9311 140.165 66.3766C140.712 66.478 141.118 66.13 141.366 65.823C140.768 65.1409 139.986 64.6982 139.307 64.6821C138.8 64.6339 138.218 64.9564 137.767 65.5626C135.555 68.5431 133.871 70.846 132.96 72.1299C133.573 72.2014 134.151 72.3798 134.696 72.6258Z" fill="#FFBE55"/>
<path d="M128.985 67.2609C127.614 69.0917 126.173 70.124 125.121 70.8782C123.736 71.8717 123.394 72.2086 123.477 72.9782C123.494 73.1345 123.561 73.2503 123.701 73.3611C123.885 73.5074 124.15 73.6116 124.452 73.6886C124.47 73.6792 124.481 73.6637 124.501 73.6554C126.155 72.9821 129.449 68.9571 130.533 67.6339L130.767 67.3479C131.915 65.9593 133.531 66.5151 134.415 67.118C134.72 66.7041 135.028 66.2868 135.335 65.8712C133.737 63.9446 131.096 64.4477 128.985 67.2609Z" fill="#FFBE55"/>
<path d="M142.933 66.6697C142.672 67.0465 142.298 67.4382 141.82 67.7319C142.26 69.1925 143.488 69.863 144.716 70.4747C145.445 70.8377 146.131 71.2006 146.625 71.7137C147.04 70.2298 146.986 69.049 146.413 68.2289C145.571 67.026 143.782 66.7334 142.933 66.6697Z" fill="#FFBE55"/>
<path d="M136.467 119.73L136.66 119.948C139.095 122.72 141.394 125.396 142.926 127.651C142.88 126.433 142.797 125.173 142.65 124.297C142.645 124.269 142.642 124.239 142.641 124.211C141.859 123.201 141.018 122.26 140.13 121.464C137.535 119.145 136.072 116.819 135.254 115.026C135.115 116.568 135.29 118.392 136.467 119.73Z" fill="#FFBE55"/>
<path d="M135.222 110.785C135.014 110.42 134.826 110.028 134.672 109.59C134.671 109.587 134.672 109.583 134.671 109.579C134.658 109.574 134.645 109.569 134.632 109.565C134.102 110.484 133.13 111.118 132.092 111.12C132.092 111.12 132.088 111.12 132.087 111.12C132.007 111.12 131.935 111.089 131.857 111.082C131.722 111.679 131.678 112.354 132.056 112.715C132.482 113.125 133.346 113.12 133.798 113.004C134.017 112.069 134.26 111.406 134.291 111.33C134.441 110.956 134.818 110.739 135.222 110.785Z" fill="#FFBE55"/>
<path d="M133.49 114.828C133.396 114.834 133.311 114.849 133.213 114.849C132.948 114.849 132.673 114.814 132.397 114.76C132.235 115.37 132.178 116.06 132.584 116.475C132.838 116.734 133.209 116.834 133.513 116.853C133.447 116.154 133.431 115.467 133.49 114.828Z" fill="#FFBE55"/>
<path d="M100.578 75.413L100.573 75.4152C98.7958 76.0103 96.6852 75.8646 94.8389 75.5027C95.9155 77.1628 96.3272 79.1637 96.3754 81.0239C98.6944 77.999 101.262 76.6137 103.1 75.9571C102.154 75.8729 101.301 75.6978 100.578 75.413Z" fill="#FFBE55"/>
<path d="M142.483 119.415C142.082 119.384 141.177 119.27 140.103 118.943C140.481 119.343 140.86 119.743 141.31 120.147C144.27 122.793 146.677 126.823 148.249 129.931C148.81 127.925 150.127 126.205 151.544 124.9C147.588 124.639 144.494 121.884 142.483 119.415Z" fill="#FFBE55"/>
<path d="M122.467 87.0277C121.818 86.8847 121.09 86.6159 120.38 86.1804C119.907 87.6882 119.575 89.0845 119.393 90.3595C120.374 90.2692 121.115 90.2775 121.62 90.3185C121.862 88.9654 122.196 87.8078 122.467 87.0277Z" fill="#FFBE55"/>
<path d="M94.5329 82.7139C94.7452 80.6222 94.6316 77.2826 92.311 75.2761C92.3038 75.275 92.2971 75.2778 92.2888 75.2767C92.2173 75.2673 85.5824 74.3109 81.154 78.8341C79.4883 80.5357 78.405 81.8678 77.5356 82.9372C76.3559 84.3896 75.5093 85.4318 74.1356 86.2386C78.2914 87.7197 88.3663 90.216 94.5329 82.7139Z" fill="#FFBE55"/>
<path d="M156.175 55.9033C158.028 56.8985 161.158 58.0705 163.896 56.6957C163.9 56.6891 163.9 56.6819 163.903 56.6747C163.938 56.617 167.357 50.8488 164.873 45.0256C163.938 42.8352 163.121 41.3253 162.464 40.1129C161.575 38.4694 160.934 37.2864 160.713 35.7077C157.759 38.9858 151.599 47.3374 156.175 55.9033Z" fill="#FFBE55"/>
<path d="M153.644 125.461C151.976 126.741 149.621 129.109 149.749 132.172C149.754 132.18 149.763 132.184 149.769 132.192C149.806 132.247 153.66 137.734 159.989 137.861C162.376 137.909 164.085 137.785 165.461 137.684C167.327 137.546 168.666 137.451 170.193 137.893C168.419 133.855 163.331 124.819 153.644 125.461Z" fill="#FFBE55"/>
<path d="M139.858 115.451C139.842 115.416 139.856 115.379 139.845 115.343L138.635 116.375C139.427 116.868 140.263 117.17 140.978 117.358C140.265 116.265 139.873 115.481 139.858 115.451Z" fill="#FFBE55"/>
<path d="M134.869 103.646C134.533 103.623 134.2 103.588 133.871 103.53C133.618 103.94 133.061 105.107 133.883 106.579C134.189 107.128 134.704 107.815 135.421 107.983C135.848 108.08 136.339 107.937 136.86 107.659C135.799 105.943 135.16 104.431 134.869 103.646Z" fill="#FFBE55"/>
<path d="M152.967 72.5061C153.886 71.8179 155.564 70.5246 157.553 68.8241C158.15 65.039 160.358 61.5137 162.334 59.0053C160.324 59.284 158.263 58.7908 156.526 58.0483C158.85 64.271 153.817 71.1652 152.873 72.3809C152.903 72.4247 152.937 72.4618 152.967 72.5061Z" fill="#FFBE55"/>
<path d="M137.326 115.164L138.929 113.796C137.887 113.436 136.888 112.85 136.072 111.958C136.194 112.521 136.532 113.681 137.326 115.164Z" fill="#FFBE55"/>
<path d="M117.558 90.616C117.76 88.9066 118.209 87.0027 118.909 84.9248C118.461 84.415 118.068 83.7939 117.755 83.0519C116.928 84.9658 115.733 88.0976 115.272 91.1314C116.112 90.9103 116.874 90.7402 117.558 90.616Z" fill="#FFBE55"/>
<path d="M148.556 69.0474C148.758 70.1966 148.627 71.5192 148.074 73.0497C148.406 73.6409 148.687 74.4638 148.688 75.3581C149.389 75.2091 149.44 74.7846 149.657 72.469L149.75 71.512C149.837 70.6332 149.679 69.9627 149.279 69.5222C149.073 69.2939 148.816 69.1543 148.556 69.0474Z" fill="#FFBE55"/>
<path d="M148.364 84.1768C148.939 84.0576 149.669 83.8077 150.251 83.2702C151.132 82.4563 152.109 80.7324 151.949 79.9578C151.929 79.8614 151.905 79.7987 151.736 79.7389C151.097 79.5106 150.904 79.5932 150.905 79.5959C150.866 79.6259 150.793 79.7871 150.751 79.8819C150.64 80.1262 150.49 80.4587 150.156 80.6776C149.645 81.01 149.163 81.0987 148.719 81.1009C148.848 82.3355 148.605 83.4581 148.364 84.1768Z" fill="#FFBE55"/>
<path d="M115.923 76.417C116.045 75.6053 116.282 74.8472 116.602 74.1673C114.992 73.565 111.352 72.3898 108.38 72.7987C104.181 73.3639 100.987 72.8934 98.9608 72.3493C99.9311 73.3495 101.598 74.3895 104.207 74.2815C110.679 74.1518 114.389 75.6158 115.923 76.417Z" fill="#FFBE55"/>
<path d="M107.799 76.1638C106.267 77.3634 105.138 78.8052 104.366 80.0359C106.746 78.8025 109.8 77.5718 111.82 76.7988C110.732 76.5223 109.393 76.2951 107.799 76.1638Z" fill="#FFBE55"/>
<path d="M151.377 77.8478C151.651 77.8799 151.948 77.9397 152.292 78.0589C152.278 77.9902 152.267 77.9298 152.249 77.8472C152.141 77.3485 152.002 76.6592 152.037 75.6568C152.037 75.6502 152.033 75.6452 152.033 75.6385C152.033 75.6324 152.036 75.6269 152.036 75.6202C152.037 75.5992 152.033 75.5881 152.034 75.567C152.077 74.6372 151.764 73.8842 151.353 73.3268C151.232 74.5231 151.075 75.4269 150.65 76.0624C150.902 76.4625 151.199 77.0825 151.377 77.8478Z" fill="#FFBE55"/>
<path d="M153.662 74.1967C153.691 74.3264 153.719 74.4572 153.738 74.5918C158.924 73.8881 162.608 68.6717 164.731 64.4943C160.218 69.2724 155.146 73.1079 153.662 74.1967Z" fill="#FFBE55"/>
<path d="M132.088 109.349H132.089C132.532 109.347 132.984 109.014 133.177 108.573C132.871 108.25 132.584 107.887 132.336 107.443C132.17 107.146 132.062 106.861 131.963 106.58C131.613 106.792 131.226 107.095 131.053 107.484C130.922 107.772 130.928 108.074 131.069 108.433C131.233 108.851 131.542 109.349 132.088 109.349Z" fill="#FFBE55"/>
<path d="M113.427 91.6711C113.78 88.4844 114.941 85.1858 115.859 82.9816C115.285 83.4188 114.569 83.867 113.683 84.2915C113.584 84.5115 111.797 88.5166 111.117 92.4829C111.934 92.1726 112.705 91.9027 113.427 91.6711Z" fill="#FFBE55"/>
<path d="M144.785 119.388C145.818 119.496 146.775 119.448 147.607 119.331C146.031 118.793 144.46 118.081 143.173 117.44C143.628 118.063 144.167 118.734 144.785 119.388Z" fill="#FFBE55"/>
<path d="M132.13 103.046C127.871 101.428 124.512 96.8454 123.308 91.0167C122.954 93.2791 122.931 96.0807 124.136 98.5941C125.441 101.319 128.027 103.235 131.736 104.362C131.816 103.837 131.966 103.392 132.13 103.046Z" fill="#FFBE55"/>
<path d="M154.79 76.263C154.696 76.2829 154.594 76.2818 154.499 76.2995C155.682 77.5939 160.438 83.35 161.725 93.3949C162.61 93.7335 163.435 94.0809 164.133 94.4333C163.671 90.3462 161.821 80.0071 154.79 76.263Z" fill="#FFBE55"/>
<path d="M109.223 93.2437C109.592 90.1866 110.667 87.0437 111.398 85.1808C110.658 85.4119 109.834 85.6163 108.928 85.7887C107.332 88.4628 106.365 92.4735 105.92 94.7375C107.095 94.1657 108.185 93.6808 109.223 93.2437Z" fill="#FFBE55"/>
<path d="M137.875 109.149C137.431 109.408 137.018 109.576 136.638 109.669C137.625 111.623 139.459 112.29 141.017 112.463C139.758 111.466 138.732 110.307 137.875 109.149Z" fill="#FFBE55"/>
<path d="M125.138 76.0335C125.356 75.9327 125.629 75.8546 125.877 75.7654C125.873 75.7194 125.861 75.6773 125.861 75.6296C124.824 75.6085 123.469 75.4406 122.598 74.7469C122.089 74.3407 121.785 73.7972 121.717 73.1727C121.511 71.2893 122.764 70.3899 124.089 69.4408C124.629 69.0523 125.243 68.6029 125.88 68.0328C123.94 67.9003 122.2 68.5503 121.12 69.9544C120.051 71.3425 119.847 73.1223 120.585 74.5978C121.592 76.6165 123.764 76.4131 125.138 76.0335Z" fill="#FFBE55"/>
<path d="M122.745 78.0018C122.229 77.9425 121.729 77.7818 121.245 77.5652C121.17 78.577 121.233 79.9506 121.89 80.7568C121.907 80.3041 121.962 79.8448 122.095 79.3915C122.222 78.9587 122.425 78.4794 122.745 78.0018Z" fill="#FFBE55"/>
<path d="M129.377 78.6107C131.484 78.7764 133.101 78.2406 134.064 77.7873C132.447 76.6342 131.272 76.9091 130.494 77.272C129.245 77.8533 127.846 77.8167 126.901 77.272C126.552 77.4305 126.174 77.5879 125.732 77.7147C124.744 78.2107 124.102 78.9155 123.818 79.8193C123.728 80.1035 123.713 80.3844 123.692 80.6632C123.71 80.6476 123.711 80.6194 123.731 80.605C125.757 79.1521 127.656 78.4994 129.377 78.6107Z" fill="#FFBE55"/>
<path d="M138.999 103.004C138.276 103.289 137.529 103.5 136.759 103.603C137.269 104.82 138.277 106.889 139.871 108.832C140.702 107.432 139.723 104.421 138.999 103.004Z" fill="#FFBE55"/>
<path d="M122.185 82.9888C120.304 82.4347 119.578 80.7097 119.444 78.9283C119.04 79.7744 118.823 80.8322 119.228 82.008C120.044 84.3663 121.825 85.0539 122.873 85.2722C122.884 84.998 122.897 84.7242 122.918 84.4516C122.912 84.4455 122.904 84.4439 122.898 84.4378C122.654 84.1685 122.386 83.6454 122.185 82.9888Z" fill="#FFBE55"/>
<path d="M115.891 78.3969C115.827 78.3692 115.755 78.3752 115.697 78.332C115.687 78.3254 115.281 78.055 114.525 77.7114C111.863 79.1477 110.369 82.0778 109.686 83.8232C114.508 82.6546 116.037 80.4609 116.335 79.9484C116.116 79.4264 115.967 78.9072 115.891 78.3969Z" fill="#FFBE55"/>
<path d="M147.05 97.8555C147.945 95.9178 148.137 93.6986 147.664 91.2411C146.594 96.1666 143.978 100.18 140.589 102.222C140.744 102.533 140.915 102.918 141.094 103.374C142.424 102.792 145.532 101.142 147.05 97.8555Z" fill="#FFBE55"/>
<path d="M149.186 79.1959C149.293 78.9072 149.453 78.6085 149.688 78.3586C149.584 77.8073 149.364 77.344 149.18 77.0465C148.916 77.1163 148.62 77.1673 148.283 77.2011C148.26 77.2027 148.237 77.2044 148.214 77.205C148.037 77.5352 147.801 77.8599 147.497 78.1746C147.767 78.5154 148 78.8567 148.171 79.2086C148.217 79.2341 148.274 79.2186 148.316 79.2524C148.388 79.3045 148.719 79.5006 149.186 79.1959Z" fill="#FFBE55"/>
<path d="M151.703 84.3131C152.618 86.7146 153.188 88.9011 153.415 90.8305C154.135 91.0184 154.903 91.225 155.7 91.4495C155.243 88.0494 153.814 84.4738 152.968 82.5798C152.592 83.2536 152.137 83.8604 151.703 84.3131Z" fill="#FFBE55"/>
<path d="M151.558 90.3601C151.322 88.869 150.873 87.2116 150.214 85.4091C149.465 85.7754 148.728 85.9316 148.186 86.0015C148.187 86.0951 148.196 86.1865 148.196 86.2807C148.196 86.5057 148.177 86.7246 148.171 86.9479C148.193 86.9839 148.223 87.011 148.24 87.0509C148.625 87.989 148.918 88.8995 149.151 89.7916C149.43 89.8536 150.311 90.0531 151.558 90.3601Z" fill="#FFBE55"/>
<path d="M157.548 91.9864C158.304 92.2147 159.061 92.454 159.799 92.7023C158.681 85.5365 155.747 80.774 154.11 78.6273C154.094 78.9726 154.022 79.346 153.814 79.7782C153.789 79.8298 153.739 79.8536 153.707 79.8979C153.715 79.9949 153.731 80.0907 153.728 80.191C153.794 80.2553 153.858 80.3218 153.901 80.4083C154.028 80.6554 157.04 86.5705 157.548 91.9864Z" fill="#FFBE55"/>
<path d="M135.507 101.92C141.528 101.92 146.426 94.9048 146.426 86.2807C146.426 85.808 146.41 85.342 146.382 84.8793C145.211 83.12 143.166 81.8938 142.559 81.5575C138.95 81.4926 136.541 79.8857 135.514 79.0352C134.493 79.6275 132.277 80.5961 129.244 80.3767C128.015 80.2985 126.607 80.7801 125.037 81.8495C124.74 83.2857 124.589 84.773 124.589 86.2807C124.589 94.9048 129.487 101.92 135.507 101.92Z" fill="#FFD7AA"/>
<path d="M92.7766 112.971C92.9379 112.927 94.562 112.486 96.9397 112.291C107.951 109.809 120.882 101.91 123.212 100.448C122.983 100.084 122.721 99.7428 122.534 99.3505C121.375 96.9269 121.19 94.3392 121.384 92.0828C119.725 91.977 114.665 92.2136 105.148 97.1025C105.02 97.1674 104.882 97.1989 104.743 97.1989C104.562 97.1989 104.382 97.1441 104.23 97.0349C103.96 96.8437 103.82 96.5163 103.867 96.1888C103.895 95.9926 104.345 92.9134 105.374 89.6398C99.9052 90.7862 88.3598 102.438 82.0042 108.859C80.8034 110.074 79.7218 111.166 78.8064 112.068C78.6801 112.193 78.546 112.311 78.4108 112.43C77.6073 113.14 76.7778 113.873 77.3652 118.101C77.9071 122.004 82.9839 122.403 86.7612 122.428H87.0377C88.2263 122.428 91.0883 123.417 96.0459 125.166C100.859 126.865 106.316 128.79 109.848 129.452C111.538 129.766 113.124 130.049 114.587 130.31C119.052 131.108 122.279 131.681 123.967 132.38C126.017 133.229 128.277 137.417 130.236 141.276L130.612 142.011C131.766 144.238 131.983 147.026 131.176 149.282C130.784 150.382 131.064 150.959 131.204 151.156C131.34 151.35 131.501 151.419 131.597 151.419C132.052 151.419 132.381 151.419 132.745 150.267C133.205 148.812 133.32 148.671 135.255 146.331L135.783 145.693C137.777 143.275 135.779 138.313 134.82 135.927L134.684 135.593C134.002 133.886 134.606 132.095 135.191 130.364C135.588 129.186 135.999 127.969 135.999 126.804C135.999 126.551 135.932 126.38 135.771 126.228C134.842 125.347 131.692 125.515 129.389 125.632C128.54 125.678 127.736 125.72 127.047 125.72C123.483 125.72 117.764 122.158 109.448 116.722C105.324 114.032 100.436 113.799 97.1181 114.064C95.7444 114.364 94.3952 114.583 93.0941 114.701C92.6459 114.74 92.2258 114.431 92.1433 113.98C92.0613 113.534 92.335 113.092 92.7766 112.971Z" fill="#FFD7AA"/>
<path d="M194.502 54.8306C193.006 55.1464 192.826 55.1121 189.816 54.5635L189.023 54.4206C185.93 53.8515 182.591 58.0378 180.982 60.0409L180.756 60.3224C179.602 61.752 177.746 62.1 175.952 62.4385C174.729 62.669 173.465 62.9062 172.449 63.478C172.229 63.6005 172.113 63.7451 172.058 63.9601C171.745 65.198 173.432 67.8655 174.665 69.8132C175.119 70.5302 175.549 71.2128 175.887 71.8118C177.63 74.9171 177.323 81.6489 176.655 91.5642C176.307 96.7401 178.756 101.318 180.665 104.048C181.434 104.917 182.178 105.834 182.88 106.796C183.153 107.169 183.092 107.69 182.74 107.99C182.389 108.294 181.864 108.268 181.539 107.941C181.429 107.831 180.416 106.798 179.21 105.083C174.37 99.6918 168.427 96.1278 165.955 94.7758C166.02 95.4795 166.045 95.9582 166.049 96.0591C166.062 96.4054 165.872 96.7257 165.564 96.8819C165.438 96.9446 165.3 96.9767 165.164 96.9767C164.969 96.9767 164.773 96.9119 164.613 96.7855C162.267 94.9171 153.643 92.6458 149.55 91.6966C149.911 94.2228 149.613 96.539 148.649 98.6158C147.66 100.747 146.138 102.246 144.706 103.301C152.215 112.578 169.995 116.542 180.7 118.917C183.456 119.528 185.838 120.056 187.588 120.563C187.76 120.614 187.929 120.671 188.098 120.731C189.111 121.084 190.154 121.45 193.557 118.866C196.696 116.482 194.589 111.839 192.729 108.554L192.594 108.314C192.013 107.279 191.475 104.298 190.574 99.1194C189.7 94.0892 188.708 88.3875 187.555 84.9825C187 83.3478 186.469 81.8196 185.978 80.4111C184.49 76.1372 183.415 73.0475 183.199 71.2378C182.936 69.0357 185.479 65.0179 187.884 61.4239L188.346 60.7274C189.726 58.6296 192.05 57.0781 194.411 56.6769C195.56 56.4813 195.927 55.9532 196.031 55.7366C196.132 55.5221 196.115 55.3498 196.068 55.2661C195.846 54.8722 195.686 54.579 194.502 54.8306Z" fill="#FFD7AA"/>
<path d="M79.2016 54.231C80.2333 55.3587 80.2965 55.5293 81.3593 58.3786L81.6474 59.1482C82.7473 62.0872 88.0474 62.8347 90.5935 63.1915L90.9465 63.2425C92.7645 63.503 94.0129 64.9187 95.2203 66.2907C96.0432 67.2243 96.8937 68.1879 97.9028 68.7687C98.1239 68.895 98.3073 68.9232 98.5173 68.8584C99.7441 68.4966 101.173 65.6839 102.217 63.6298C102.603 62.8718 102.968 62.152 103.313 61.5553C105.089 58.4733 111.032 55.296 119.896 50.8028C124.782 48.3248 127.502 43.5057 128.798 40.4819C129.096 39.4906 129.43 38.5481 129.807 37.6671C129.991 37.2404 130.467 37.0398 130.906 37.1761C131.344 37.3257 131.594 37.7868 131.479 38.2361C131.444 38.3719 131.135 39.5344 130.438 41.1779C128.067 49.2468 128.173 60.677 128.332 65.2794C130.119 63.3223 131.819 62.879 132.99 62.879C134.282 62.879 135.465 63.4453 136.411 64.4383C137.401 63.1539 138.531 62.9051 139.353 62.9117C140.847 62.9483 142.085 63.9069 142.874 64.9032C143.738 64.947 145.687 65.1769 147.108 66.3937C149.066 56.7844 144.566 43.1311 141.528 33.9351C140.577 31.056 139.755 28.568 139.239 26.586C139.193 26.4131 139.157 26.238 139.121 26.0601C138.907 25.0106 138.685 23.9257 134.731 22.3232C131.074 20.8316 128.164 25.0251 126.288 28.2987L126.15 28.5409C125.557 29.571 123.267 31.5591 119.272 34.9824C115.399 38.3021 111.009 42.0672 108.673 44.7962C107.556 46.1012 106.518 47.3324 105.563 48.4683C102.644 51.9398 100.533 54.4488 99.0841 55.562C97.3226 56.9174 92.5623 56.7838 88.2336 56.5511L87.4196 56.5095C86.0554 56.4497 84.7022 56.0424 83.4876 55.4096L83.3868 55.3847L83.3275 55.3127C82.3783 54.794 81.5083 54.154 80.8401 53.3677C80.4018 52.8519 80.0122 52.6352 79.7064 52.5355L78.7334 52.7516C78.5367 53.104 78.448 53.4088 79.2016 54.231Z" fill="#FFD7AA"/>
<path d="M197.737 54.1763C197.032 52.9192 195.958 52.5184 194.262 52.871C193.103 53.1154 193.103 53.1132 190.252 52.5966L189.456 52.4508C185.321 51.6992 181.534 56.4356 179.711 58.7071L179.486 58.9859C178.741 59.9083 177.346 60.1688 175.73 60.4736C174.366 60.7319 172.955 60.9974 171.684 61.7097C171.046 62.0694 170.615 62.6187 170.442 63.3011C169.943 65.2799 171.635 67.9527 173.272 70.5379C173.708 71.2275 174.122 71.8821 174.446 72.4591C176.063 75.3392 175.519 83.4174 174.993 91.2313C174.787 94.296 175.443 97.1373 176.414 99.5679C171.39 95.2461 166.572 92.8066 165.791 92.4247C165.098 87.7326 163.041 79.4554 157.053 75.3187C164.839 71.8699 168.54 60.1377 168.716 59.5607C168.843 59.1478 168.654 58.7049 168.268 58.5109C167.884 58.3152 167.413 58.4277 167.157 58.7764C165.123 61.5362 162.507 64.2151 160.038 66.4838C161.55 62.2158 164.906 58.4893 166.362 57.0221C166.618 56.8031 166.869 56.5587 167.112 56.2937C167.43 55.9456 167.42 55.4079 167.087 55.0715C166.968 54.9518 166.809 54.9224 166.655 54.8847C167.56 52.386 168.4 48.3163 166.601 44.1009C165.635 41.8361 164.795 40.2841 164.12 39.0391C162.909 36.8042 162.357 35.7854 162.523 33.4264C162.548 33.0666 162.354 32.728 162.031 32.5705C161.708 32.4093 161.322 32.4625 161.051 32.7019C160.928 32.8106 149.506 43.1531 153.844 54.6031C153.713 54.6491 153.573 54.6757 153.472 54.7838C153.164 55.1158 153.155 55.628 153.454 55.9689C158.321 61.519 152.928 69.2786 151.693 70.9054C151.665 70.8871 151.639 70.8633 151.61 70.8456C151.61 69.7381 151.31 68.813 150.677 68.1129C150.12 67.4982 149.428 67.1734 148.816 66.9999C151.127 56.9167 146.623 43.2396 143.287 33.147C142.345 30.2946 141.53 27.8336 141.027 25.9035C140.991 25.7605 140.962 25.6175 140.932 25.4723C140.589 23.7933 139.942 22.2574 135.467 20.4449C129.96 18.2172 126.085 24.9673 124.814 27.1856L124.679 27.4212C124.207 28.2404 121.141 30.8667 118.176 33.4053C114.251 36.7677 109.801 40.5795 107.374 43.4142C106.254 44.7245 105.213 45.9623 104.253 47.1019C101.508 50.3622 99.3421 52.9364 98.0438 53.9352C96.6535 55.005 90.6258 54.6802 88.3598 54.5577L87.5296 54.5139C85.4965 54.4241 83.4606 53.4602 82.215 51.9935C81.305 50.9215 80.1581 50.3744 79.0678 50.4642C78.2936 50.5357 77.6198 50.9415 77.2671 51.5528C76.5473 52.8006 76.7491 53.9285 77.9215 55.2034C78.7206 56.0775 78.7206 56.0775 79.7266 58.7736L80.0161 59.5485C81.4858 63.4735 87.4941 64.3177 90.3817 64.7262L90.73 64.7744C91.903 64.9423 92.8424 66.0082 93.9305 67.2415C94.7002 68.1129 95.5321 68.9676 96.5109 69.6632C96.451 69.6932 96.3812 69.6954 96.3279 69.7397C96.0501 69.9703 95.9381 70.3439 96.0451 70.6876C96.0551 70.7175 96.6673 72.3726 98.3089 73.801C95.7201 73.9274 92.7614 72.9374 91.5752 72.4818C91.3872 72.3987 91.192 72.3205 90.9912 72.2462C90.5415 72.0805 90.0451 72.3089 89.8665 72.749C89.8055 72.9009 89.8039 73.0572 89.8272 73.2085C87.1707 73.3327 83.1096 74.1209 79.9163 77.3773C78.1916 79.1394 77.078 80.5069 76.1851 81.6066C74.5818 83.5788 73.8487 84.4778 71.6054 85.2272C71.2638 85.3403 71.0253 85.649 71.002 86.0088C70.9776 86.3685 71.174 86.7055 71.4984 86.8618C71.5893 86.9056 76.8595 89.4083 82.9809 89.4083C86.8485 89.4083 91.0544 88.4033 94.5106 85.1552C94.6026 85.2544 94.6775 85.3713 94.8123 85.4212C94.9137 85.4578 95.018 85.4761 95.1201 85.4761C95.4489 85.4761 95.7611 85.2915 95.9148 84.9828C98.4725 79.8085 101.998 77.9477 104.051 77.2809C102.221 79.6089 101.417 81.8083 101.372 81.9386C101.24 82.315 101.377 82.7346 101.708 82.9602C102.038 83.1858 102.479 83.163 102.783 82.9025C104.119 81.7657 107.372 80.3012 110.131 79.176C108.463 81.4597 107.739 83.8825 107.586 84.4407C107.006 85.3724 106.505 86.4467 106.075 87.5608C100.686 87.7554 90.6302 97.4566 80.7754 107.408C79.5791 108.616 78.5016 109.703 77.5904 110.599C77.485 110.704 77.3758 110.8 77.2638 110.899C75.981 112.034 74.9711 113.36 75.6361 118.143C76.4557 124.028 84.2448 124.014 86.8008 123.998H87.072C88.0159 123.998 91.8198 125.34 95.4972 126.636C100.376 128.358 105.906 130.307 109.576 130.992C111.272 131.31 112.865 131.594 114.334 131.854C118.529 132.601 121.842 133.195 123.355 133.819C124.974 134.487 127.699 139.859 128.726 141.881L129.11 142.633C130.046 144.437 130.226 146.685 129.579 148.496C129.106 149.819 129.196 151.09 129.826 151.985C130.274 152.619 130.963 153 131.668 153C133.109 153 133.985 152.262 134.506 150.611C134.863 149.483 134.863 149.483 136.693 147.27L137.224 146.626C139.892 143.396 137.627 137.773 136.538 135.07L136.403 134.738C135.964 133.637 136.417 132.291 136.943 130.734C137.387 129.42 137.845 128.061 137.845 126.606C137.845 125.873 137.575 125.229 137.064 124.743C135.583 123.338 132.419 123.509 129.364 123.666C128.548 123.71 127.775 123.752 127.114 123.752C123.807 123.752 117.026 119.324 110.469 115.042C108.008 113.434 105.34 112.615 102.842 112.246C112.773 108.848 122.465 102.853 124.328 101.67C125.782 103.325 127.723 104.639 130.219 105.54C129.941 105.817 129.688 106.149 129.51 106.541C129.183 107.265 129.175 108.07 129.489 108.872C129.684 109.369 129.97 109.76 130.297 110.088C129.729 112.074 130.286 113.17 130.87 113.749C130.233 115.727 130.785 116.89 131.388 117.509C132.022 118.158 132.901 118.434 133.676 118.434C133.778 118.434 133.861 118.402 133.959 118.393C134.223 119.201 134.591 119.994 135.21 120.698L135.403 120.915C138.079 123.956 142.555 129.046 143.083 131.421C143.183 131.864 143.599 132.15 144.041 132.111C144.489 132.065 144.83 131.689 144.835 131.24C144.836 131.108 144.854 129.063 144.76 126.978C146.726 130.165 148.083 133.326 148.537 134.438C148.592 134.588 148.653 134.74 148.719 134.893C148.864 135.228 149.19 135.428 149.532 135.428C149.643 135.428 149.756 135.407 149.866 135.364C150.014 135.303 150.126 135.199 150.217 135.081C152.13 136.93 155.487 139.344 160.049 139.435C162.512 139.475 164.275 139.354 165.689 139.253C168.224 139.066 169.38 138.983 171.463 140.102C171.594 140.174 171.739 140.208 171.882 140.208C172.084 140.208 172.284 140.139 172.446 140.005C172.724 139.777 172.835 139.401 172.728 139.06C172.678 138.903 167.931 124.264 155.711 123.498C155.723 123.359 155.756 123.22 155.698 123.083C155.521 122.663 155.059 122.442 154.623 122.58C151.6 123.504 148.97 122.538 146.881 120.991C149.584 120.823 151.46 119.893 151.558 119.844C151.909 119.667 152.102 119.279 152.03 118.894C151.96 118.507 151.643 118.214 151.251 118.173C147.29 117.755 141.25 114.139 141.19 114.103C141.166 114.089 141.137 114.097 141.112 114.085C141.124 114.072 141.135 114.057 141.146 114.043C141.484 114.075 141.818 114.091 142.139 114.091C142.89 114.091 143.576 114.013 144.131 113.895C144.502 113.817 144.781 113.512 144.827 113.139C144.875 112.762 144.679 112.4 144.34 112.232C143.132 111.639 142.086 110.836 141.175 109.951C142.266 108.627 142.164 106.629 141.711 104.864C142.108 104.7 142.647 104.443 143.297 104.074C151.131 113.928 168.727 117.847 180.428 120.445C183.158 121.049 185.515 121.573 187.215 122.064C187.356 122.105 187.493 122.154 187.634 122.202C188.191 122.396 188.752 122.55 189.405 122.55C190.648 122.55 192.228 121.99 194.752 120.075C199.489 116.478 195.656 109.702 194.395 107.477L194.264 107.241C193.802 106.42 193.111 102.449 192.443 98.609C191.556 93.5122 190.551 87.7376 189.351 84.2023C188.795 82.56 188.261 81.0268 187.769 79.6156C186.371 75.6008 185.267 72.4319 185.074 70.8084C184.866 69.0746 188.215 64.0699 189.475 62.1881L189.946 61.4797C191.065 59.7774 192.937 58.5231 194.832 58.2027C196.218 57.9655 197.285 57.2637 197.755 56.2749C198.087 55.5742 198.082 54.7894 197.737 54.1763ZM196.155 55.5133C196.05 55.73 195.684 56.2582 194.534 56.4539C192.169 56.8552 189.844 58.4072 188.463 60.5058L188.001 61.2025C185.594 64.7977 183.049 68.8174 183.312 71.0196C183.529 72.8299 184.605 75.9201 186.093 80.1959C186.584 81.6049 187.116 83.1342 187.671 84.7688C188.826 88.1749 189.818 93.8781 190.694 98.9105C191.594 104.09 192.133 107.072 192.715 108.108L192.85 108.348C194.712 111.634 196.82 116.279 193.679 118.663C190.273 121.248 189.23 120.882 188.215 120.529C188.045 120.469 187.877 120.411 187.705 120.361C185.953 119.854 183.569 119.326 180.811 118.715C170.097 116.339 152.302 112.373 144.787 103.094C146.22 102.039 147.743 100.538 148.733 98.4066C149.698 96.3297 149.995 94.0128 149.634 91.4852C153.731 92.4347 162.361 94.7062 164.711 96.5758C164.871 96.7022 165.066 96.767 165.262 96.767C165.398 96.767 165.535 96.7349 165.662 96.6722C165.97 96.5159 166.16 96.195 166.147 95.8491C166.143 95.7482 166.118 95.2693 166.054 94.5654C168.527 95.9179 174.476 99.4831 179.32 104.876C180.527 106.591 181.54 107.625 181.65 107.735C181.977 108.062 182.501 108.088 182.853 107.784C183.205 107.484 183.266 106.963 182.993 106.589C182.29 105.627 181.546 104.709 180.776 103.84C178.865 101.11 176.414 96.5304 176.762 91.3527C177.431 81.4336 177.739 74.6995 175.994 71.5938C175.656 70.9947 175.225 70.3118 174.771 69.5945C173.538 67.6456 171.849 64.9773 172.162 63.7395C172.216 63.525 172.333 63.3798 172.553 63.2573C173.569 62.6853 174.835 62.448 176.059 62.2174C177.854 61.8788 179.711 61.5301 180.867 60.1006L181.093 59.819C182.704 57.8147 186.046 53.627 189.141 54.1968L189.934 54.3398C192.946 54.8886 193.127 54.9235 194.625 54.607C195.809 54.3553 195.969 54.6486 196.192 55.0449C196.238 55.1264 196.256 55.2993 196.155 55.5133ZM165.56 137.486C164.183 137.587 162.473 137.712 160.084 137.663C153.749 137.537 149.892 132.048 149.855 131.992C149.849 131.985 149.84 131.98 149.835 131.972C149.707 128.908 152.064 126.539 153.733 125.259C163.428 124.617 168.521 133.656 170.297 137.695C168.767 137.253 167.428 137.347 165.56 137.486ZM148.334 129.73C146.761 126.621 144.352 122.59 141.389 119.943C140.938 119.54 140.559 119.139 140.181 118.739C141.256 119.066 142.162 119.18 142.563 119.211C144.576 121.681 147.672 124.437 151.631 124.698C150.213 126.004 148.894 127.725 148.334 129.73ZM132.469 114.554C132.744 114.609 133.02 114.644 133.284 114.644C133.383 114.644 133.468 114.629 133.562 114.622C133.503 115.262 133.519 115.95 133.586 116.649C133.282 116.63 132.91 116.529 132.656 116.27C132.248 115.854 132.306 115.165 132.469 114.554ZM133.871 112.798C133.419 112.914 132.553 112.918 132.127 112.508C131.749 112.148 131.793 111.472 131.928 110.875C132.006 110.882 132.078 110.913 132.158 110.913C132.159 110.913 132.16 110.913 132.16 110.913C133.201 110.911 134.174 110.278 134.705 109.358C134.717 109.363 134.73 109.368 134.744 109.372C134.745 109.376 134.743 109.379 134.745 109.383C134.899 109.82 135.087 110.213 135.295 110.577C134.892 110.531 134.514 110.749 134.365 111.122C134.333 111.2 134.09 111.863 133.871 112.798ZM93.1319 114.498C94.434 114.381 95.7839 114.162 97.1592 113.861C100.479 113.596 105.372 113.829 109.499 116.52C117.823 121.959 123.547 125.521 127.114 125.521C127.804 125.521 128.609 125.479 129.458 125.433C131.762 125.316 134.914 125.147 135.845 126.029C136.005 126.181 136.073 126.352 136.073 126.606C136.073 127.77 135.663 128.988 135.264 130.166C134.679 131.899 134.075 133.69 134.757 135.397L134.893 135.732C135.853 138.118 137.853 143.081 135.857 145.5L135.328 146.139C133.393 148.48 133.277 148.621 132.816 150.076C132.451 151.228 132.123 151.228 131.667 151.228C131.572 151.228 131.411 151.159 131.274 150.966C131.134 150.767 130.854 150.191 131.246 149.091C132.054 146.833 131.836 144.045 130.682 141.818L130.305 141.082C128.345 137.222 126.083 133.031 124.031 132.183C122.341 131.485 119.112 130.91 114.643 130.112C113.179 129.852 111.592 129.568 109.9 129.254C106.364 128.592 100.904 126.667 96.0861 124.967C91.1243 123.217 88.2599 122.228 87.0704 122.228H86.7936C83.0131 122.203 77.932 121.803 77.3897 117.899C76.8018 113.67 77.632 112.937 78.4361 112.227C78.5715 112.107 78.7046 111.99 78.8321 111.865C79.7483 110.964 80.8303 109.871 82.0326 108.654C88.3936 102.232 99.9488 90.5756 105.422 89.4288C104.393 92.7035 103.942 95.7832 103.914 95.9799C103.867 96.307 104.008 96.6351 104.277 96.8263C104.43 96.9344 104.609 96.9904 104.791 96.9904C104.929 96.9904 105.068 96.9583 105.196 96.894C114.721 92.0034 119.785 91.7668 121.445 91.8726C121.251 94.1303 121.437 96.7188 122.597 99.1427C122.785 99.5352 123.046 99.8766 123.275 100.241C120.943 101.702 108.002 109.604 96.9807 112.087C94.601 112.283 92.9749 112.724 92.8141 112.767C92.3721 112.89 92.0976 113.33 92.1808 113.779C92.2629 114.228 92.6827 114.537 93.1319 114.498ZM96.415 80.8073C96.3667 78.946 95.9547 76.9444 94.8771 75.2843C96.725 75.6463 98.8379 75.7921 100.616 75.1967L100.621 75.1945C101.345 75.4794 102.199 75.6546 103.145 75.7388C101.305 76.3957 98.7359 77.782 96.415 80.8073ZM77.5594 82.7218C78.4289 81.652 79.5137 80.319 81.1807 78.6173C85.6129 74.0926 92.254 75.0499 92.325 75.0587C92.3322 75.0598 92.3388 75.0571 92.3472 75.0582C94.6703 77.0658 94.7834 80.4065 94.571 82.4984C88.3991 90.0019 78.3158 87.5059 74.1559 86.0243C75.5307 85.2167 76.3792 84.1752 77.5594 82.7218ZM164.972 44.7977C167.458 50.6227 164.035 56.3929 164.001 56.4506C163.996 56.4572 163.997 56.4644 163.994 56.4716C161.253 57.8468 158.121 56.6751 156.266 55.679C151.686 47.1102 157.852 38.7559 160.809 35.4762C161.03 37.0559 161.67 38.2387 162.561 39.8828C163.218 41.0956 164.036 42.606 164.972 44.7977ZM156.616 57.8241C158.355 58.5669 160.418 59.0602 162.43 58.7814C160.451 61.2918 158.242 64.8176 157.644 68.6034C155.653 70.3046 153.975 71.5972 153.054 72.2867C153.025 72.2418 152.99 72.2047 152.96 72.1614C153.905 70.9464 158.942 64.0488 156.616 57.8241ZM137.4 114.959C136.605 113.476 136.267 112.315 136.145 111.752C136.962 112.644 137.962 113.231 139.004 113.59L137.4 114.959ZM139.92 115.137C139.933 115.173 139.918 115.212 139.934 115.245C139.949 115.275 140.341 116.06 141.055 117.152C140.339 116.963 139.502 116.662 138.71 116.169L139.92 115.137ZM140.207 121.262C141.096 122.058 141.938 122.999 142.72 124.009C142.721 124.037 142.725 124.067 142.729 124.095C142.876 124.971 142.959 126.233 143.006 127.45C141.473 125.194 139.171 122.518 136.734 119.746L136.541 119.527C135.364 118.189 135.188 116.365 135.328 114.822C136.146 116.616 137.61 118.943 140.207 121.262ZM135.493 107.776C134.776 107.608 134.26 106.92 133.954 106.371C133.132 104.899 133.689 103.731 133.943 103.32C134.272 103.379 134.605 103.415 134.941 103.437C135.233 104.222 135.872 105.735 136.934 107.451C136.413 107.73 135.921 107.873 135.493 107.776ZM139.384 64.4596C140.063 64.4756 140.846 64.9185 141.444 65.6008C141.196 65.9074 140.79 66.256 140.242 66.1546C137.781 65.7095 137.043 68.1151 136.8 68.9055C136.548 69.7253 135.566 71.5733 134.769 72.4059C134.223 72.1598 133.644 71.9807 133.031 71.9098C133.943 70.6249 135.628 68.3219 137.842 65.3403C138.293 64.7345 138.876 64.4108 139.384 64.4596ZM134.44 74.1935C135.239 74.7029 135.911 75.5587 136.687 76.5503C137.172 77.17 137.733 77.8385 138.357 78.4942C137.058 77.8318 136.338 77.1096 136.325 77.0974C136.319 77.0913 136.309 77.093 136.303 77.0869C136.297 77.0808 136.3 77.0708 136.293 77.0647C134.152 74.9939 131.974 74.4451 129.816 75.4484C129.076 75.7898 128.365 75.7388 127.982 75.5914C127.761 75.5083 127.683 75.4118 127.677 75.4024C127.677 75.3747 127.716 75.2616 127.878 75.0887C128.879 74.0344 132.412 72.9064 134.44 74.1935ZM128.257 72.7357C129.508 71.4824 130.817 69.9443 131.971 68.5336L132.203 68.252C132.541 67.8424 133.137 68.1351 133.437 68.3246C132.191 70.0274 131.178 71.4398 130.845 71.9724C129.915 72.1138 129.017 72.3771 128.257 72.7357ZM140.331 73.5705C141.728 73.8886 142.466 74.2733 142.845 74.6657C141.539 74.4523 139.663 74.459 138.188 75.5897C138.154 75.546 138.117 75.5022 138.082 75.4589C137.489 74.6984 136.885 74.0183 136.226 73.4186C136.558 73.0405 136.871 72.6049 137.158 72.1448C137.778 72.5445 139.034 73.2772 140.331 73.5705ZM138.013 70.5878C138.241 70.1078 138.414 69.6887 138.494 69.4271C138.934 67.9954 139.315 67.7848 139.925 67.8978C140.001 67.9111 140.069 67.9045 140.143 67.9122C140.759 70.1926 142.615 71.1449 144.005 71.8388C144.754 72.2124 145.461 72.5655 145.604 72.9458C145.776 73.4047 145.322 73.949 144.775 74.3891C144.282 73.1969 142.927 72.3455 140.723 71.8455C139.611 71.5938 138.47 70.8905 138.013 70.5878ZM125.101 81.6332C126.673 80.5629 128.082 80.0806 129.312 80.1599C132.347 80.3788 134.564 79.4105 135.587 78.8179C136.615 79.6688 139.026 81.2762 142.638 81.3411C143.246 81.6775 145.293 82.9042 146.464 84.6641C146.493 85.1274 146.508 85.5936 146.508 86.0659C146.508 94.6929 141.606 101.711 135.58 101.711C129.555 101.711 124.653 94.6929 124.653 86.0659C124.652 84.5576 124.803 83.0699 125.101 81.6332ZM146.987 82.5062C145.785 81.2092 144.395 80.309 143.704 79.9105C144.515 79.7414 145.373 79.4609 146.174 79.0186C147.112 80.1843 147.165 81.509 146.987 82.5062ZM146.198 76.8569C144.577 78.3706 141.731 78.4194 140.909 78.4006C140.318 77.9582 139.788 77.4721 139.319 76.9461C140.992 75.7355 143.732 76.7 143.761 76.7111C143.851 76.7449 143.943 76.7504 144.034 76.7538C144.047 76.7543 144.058 76.7659 144.071 76.7659C144.076 76.7659 144.082 76.7621 144.088 76.7621C144.212 76.7598 144.334 76.7338 144.445 76.6817C144.447 76.6806 144.45 76.6811 144.45 76.6811C145.273 76.2898 146.344 75.5482 146.949 74.6003C147.086 75.2588 147.017 76.093 146.198 76.8569ZM146.708 71.4946C146.213 70.9814 145.526 70.6188 144.797 70.2552C143.567 69.6422 142.338 68.9726 141.898 67.5115C142.376 67.2177 142.75 66.8258 143.012 66.4489C143.862 66.5126 145.653 66.8059 146.496 68.0092C147.068 68.8285 147.123 70.0097 146.708 71.4946ZM134.486 66.8979C133.601 66.2948 131.984 65.7389 130.835 67.1279L130.6 67.4139C129.516 68.7376 126.219 72.7645 124.563 73.4374C124.544 73.4452 124.532 73.4613 124.514 73.4707C124.212 73.3931 123.946 73.2889 123.762 73.1431C123.623 73.0322 123.556 72.9169 123.538 72.7601C123.455 71.9902 123.798 71.6532 125.184 70.6593C126.236 69.9049 127.679 68.8723 129.051 67.0409C131.164 64.2262 133.807 63.7234 135.405 65.6513C135.098 66.0664 134.791 66.4833 134.486 66.8979ZM126.66 66.072C123.891 65.6934 121.345 66.6168 119.777 68.6517C119.125 69.4975 118.751 70.4575 118.574 71.4381C118.468 71.4819 118.347 71.4841 118.261 71.5706C118.039 71.7967 117.804 72.0827 117.57 72.3987C116.015 71.789 111.808 70.3306 108.191 70.8212C104.009 71.3871 100.921 70.8345 99.1208 70.3112C101.047 69.6915 102.468 66.9079 103.841 64.2096C104.211 63.4812 104.562 62.7911 104.892 62.2169C106.54 59.3595 113.767 55.6973 120.756 52.1548C123.696 50.6649 125.908 48.4532 127.538 46.2211C126.267 54.229 126.515 62.9713 126.66 66.072ZM118.659 73.9568C118.763 74.3686 118.865 74.7827 119.06 75.1724C119.179 75.409 119.331 75.5825 119.468 75.7826C118.96 76.2898 118.244 77.1418 117.77 78.2642C117.366 76.5298 118.029 74.9628 118.659 73.9568ZM117.812 82.8366C118.125 83.5776 118.518 84.2001 118.967 84.7101C118.268 86.7887 117.818 88.6938 117.615 90.4032C116.93 90.5268 116.167 90.6964 115.326 90.9187C115.788 87.8834 116.984 84.7511 117.812 82.8366ZM119.452 90.1455C119.635 88.8706 119.966 87.4738 120.44 85.965C121.15 86.4012 121.88 86.6695 122.528 86.8125C122.258 87.5924 121.923 88.7514 121.682 90.1044C121.176 90.0645 120.434 90.0557 119.452 90.1455ZM115.915 82.7656C114.997 84.9706 113.834 88.2703 113.48 91.458C112.758 91.6892 111.987 91.9591 111.168 92.2689C111.849 88.3019 113.637 84.2949 113.737 84.0748C114.623 83.6519 115.34 83.2041 115.915 82.7656ZM109.736 83.607C110.42 81.861 111.915 78.9299 114.58 77.4932C115.336 77.8368 115.744 78.1073 115.753 78.114C115.811 78.1578 115.883 78.1511 115.947 78.1788C116.024 78.6899 116.173 79.2087 116.392 79.7314C116.093 80.2436 114.563 82.4386 109.736 83.607ZM122.935 85.0582C121.887 84.8392 120.104 84.1519 119.287 81.7928C118.881 80.6166 119.098 79.5579 119.504 78.7121C119.638 80.4941 120.365 82.2191 122.246 82.7739C122.448 83.4302 122.716 83.954 122.96 84.224C122.966 84.23 122.974 84.2317 122.98 84.2378C122.959 84.51 122.947 84.7843 122.935 85.0582ZM121.307 77.348C121.79 77.5647 122.29 77.7249 122.808 77.7847C122.487 78.262 122.284 78.742 122.157 79.1755C122.025 79.6289 121.969 80.0895 121.952 80.5412C121.293 79.7336 121.231 78.3612 121.307 77.348ZM120.646 74.3781C119.906 72.902 120.112 71.1216 121.181 69.7331C122.263 68.3274 124.004 67.6778 125.945 67.8108C125.307 68.3806 124.693 68.8301 124.153 69.2193C122.826 70.1693 121.572 71.0689 121.779 72.9524C121.846 73.5777 122.151 74.122 122.66 74.5272C123.531 75.2211 124.888 75.3896 125.926 75.4101C125.926 75.4573 125.938 75.4999 125.942 75.5459C125.693 75.6346 125.421 75.7133 125.202 75.8142C123.827 76.195 121.653 76.3985 120.646 74.3781ZM123.88 79.6012C124.165 78.6971 124.808 77.9915 125.797 77.496C126.239 77.3696 126.617 77.2116 126.966 77.0531C127.912 77.5979 129.311 77.6345 130.563 77.0531C131.341 76.6906 132.518 76.4151 134.135 77.5686C133.171 78.0225 131.552 78.558 129.445 78.3922C127.722 78.2814 125.822 78.9343 123.793 80.3866C123.773 80.4004 123.773 80.4293 123.754 80.4448C123.776 80.1665 123.791 79.8866 123.88 79.6012ZM136.834 103.395C137.604 103.291 138.352 103.081 139.075 102.796C139.8 104.213 140.78 107.225 139.949 108.625C138.352 106.682 137.344 104.611 136.834 103.395ZM147.747 91.0279C148.22 93.4867 148.027 95.7061 147.132 97.6445C145.613 100.932 142.502 102.582 141.17 103.165C140.991 102.708 140.821 102.323 140.665 102.013C144.058 99.9708 146.676 95.9556 147.747 91.0279ZM148.255 86.7332C148.261 86.5099 148.279 86.2909 148.279 86.0659C148.279 85.9716 148.27 85.8807 148.269 85.7865C148.812 85.7167 149.549 85.5604 150.299 85.194C150.959 86.9971 151.408 88.6544 151.644 90.1466C150.396 89.84 149.514 89.6405 149.235 89.5784C149.002 88.686 148.708 87.7753 148.323 86.8369C148.307 86.7959 148.276 86.7698 148.255 86.7332ZM148.254 78.992C148.083 78.6406 147.85 78.2986 147.58 77.9577C147.884 77.6423 148.12 77.3175 148.297 76.9877C148.321 76.9871 148.343 76.986 148.367 76.9838C148.704 76.95 149 76.8984 149.264 76.8291C149.449 77.1268 149.668 77.5902 149.773 78.1417C149.538 78.3911 149.378 78.6904 149.27 78.9792C148.803 79.2841 148.472 79.0873 148.401 79.0369C148.358 79.0025 148.301 79.018 148.254 78.992ZM155.79 91.2352C154.991 91.0107 154.222 90.804 153.502 90.6161C153.276 88.6866 152.705 86.4993 151.789 84.0965C152.224 83.6431 152.679 83.0367 153.055 82.3626C153.901 84.2578 155.332 87.8346 155.79 91.2352ZM153.794 79.6799C153.826 79.6361 153.876 79.6111 153.901 79.5601C154.109 79.1278 154.182 78.7548 154.197 78.4089C155.836 80.5562 158.772 85.3203 159.891 92.4884C159.153 92.2401 158.395 92.0001 157.638 91.7723C157.13 86.3552 154.116 80.4381 153.988 80.1893C153.944 80.1028 153.88 80.0363 153.815 79.972C153.818 79.8722 153.802 79.7769 153.794 79.6799ZM161.82 93.1824C160.531 83.1337 155.772 77.3762 154.587 76.0814C154.682 76.0637 154.785 76.0648 154.879 76.0448C161.916 79.7913 163.767 90.1321 164.229 94.2206C163.531 93.8681 162.705 93.5217 161.82 93.1824ZM153.827 74.3736C153.807 74.2389 153.779 74.1081 153.75 73.9784C155.236 72.8887 160.311 69.0524 164.829 64.2722C162.703 68.4521 159.017 73.6691 153.827 74.3736ZM152.12 75.3486C152.119 75.3697 152.122 75.3808 152.122 75.4018C152.122 75.4079 152.118 75.4135 152.118 75.4201C152.118 75.4268 152.122 75.4323 152.123 75.4384C152.088 76.4411 152.228 77.1301 152.335 77.6295C152.353 77.7121 152.365 77.7725 152.378 77.8413C152.034 77.7221 151.736 77.6628 151.462 77.6301C151.284 76.8635 150.987 76.2444 150.733 75.8442C151.159 75.2089 151.315 74.3043 151.437 73.1076C151.849 73.6663 152.163 74.4191 152.12 75.3486ZM150.837 79.6643C150.88 79.5696 150.953 79.4083 150.992 79.3783C150.991 79.3761 151.183 79.293 151.824 79.5213C151.992 79.5812 152.017 79.6438 152.036 79.7403C152.197 80.5152 151.219 82.2401 150.337 83.0538C149.754 83.5915 149.024 83.8415 148.449 83.9607C148.689 83.2412 148.933 82.1182 148.805 80.8821C149.25 80.8805 149.732 80.7923 150.243 80.4586C150.577 80.2414 150.726 79.9082 150.837 79.6643ZM149.742 72.2496C149.525 74.566 149.474 74.9905 148.772 75.1397C148.77 74.2456 148.489 73.4225 148.157 72.831C148.711 71.3001 148.842 69.977 148.64 68.8274C148.9 68.9349 149.156 69.074 149.364 69.3024C149.764 69.7425 149.922 70.4138 149.835 71.2929L149.742 72.2496ZM108.429 72.5794C111.405 72.1703 115.047 73.346 116.659 73.9485C116.338 74.6286 116.101 75.3863 115.979 76.1989C114.443 75.3974 110.73 73.9341 104.253 74.0632C101.642 74.1713 99.9743 73.1314 99.0021 72.1304C101.031 72.6747 104.226 73.1442 108.429 72.5794ZM107.848 75.9456C109.444 76.077 110.784 76.3053 111.873 76.5808C109.85 77.3541 106.793 78.5851 104.413 79.819C105.185 78.5868 106.315 77.1451 107.848 75.9456ZM111.451 84.965C110.719 86.8286 109.643 89.9725 109.273 93.0305C108.235 93.4679 107.144 93.9534 105.968 94.5249C106.413 92.2601 107.381 88.2481 108.978 85.5731C109.885 85.4002 110.709 85.1967 111.451 84.965ZM124.199 98.3834C122.993 95.8691 123.015 93.0666 123.37 90.8034C124.575 96.634 127.938 101.219 132.2 102.837C132.036 103.183 131.885 103.628 131.805 104.153C128.093 103.026 125.505 101.109 124.199 98.3834ZM131.122 107.275C131.296 106.886 131.683 106.584 132.033 106.371C132.132 106.653 132.241 106.938 132.407 107.234C132.654 107.678 132.943 108.042 133.248 108.365C133.055 108.806 132.603 109.139 132.16 109.141H132.159C131.612 109.141 131.302 108.643 131.139 108.225C130.997 107.866 130.992 107.564 131.122 107.275ZM144.866 119.184C144.248 118.529 143.707 117.858 143.252 117.235C144.54 117.876 146.113 118.589 147.69 119.127C146.857 119.244 145.899 119.293 144.866 119.184ZM136.712 109.462C137.092 109.369 137.506 109.201 137.95 108.942C138.807 110.101 139.835 111.26 141.095 112.257C139.536 112.084 137.7 111.418 136.712 109.462ZM79.2275 52.2274C79.3262 52.2191 79.5093 52.2368 79.7305 52.3084C80.0367 52.4081 80.426 52.6243 80.8652 53.1409C81.534 53.9274 82.4047 54.5676 83.3547 55.0865C83.4096 55.1164 83.4595 55.1541 83.515 55.1835C84.73 55.8165 86.0843 56.2239 87.4502 56.2837L88.2649 56.3253C92.5967 56.5581 97.3617 56.6922 99.1247 55.3359C100.575 54.2223 102.687 51.713 105.609 48.2398C106.566 47.103 107.604 45.8713 108.722 44.5665C111.059 41.8361 115.453 38.0702 119.33 34.7495C123.328 31.3251 125.619 29.3374 126.214 28.3058L126.352 28.0636C128.228 24.7888 131.142 20.594 134.801 22.0861C138.759 23.6886 138.981 24.775 139.196 25.8243C139.231 26.0016 139.268 26.1773 139.313 26.3503C139.83 28.3335 140.653 30.8218 141.604 33.7019C144.645 42.9009 149.149 56.5587 147.189 66.1712C145.767 64.9545 143.816 64.7245 142.951 64.6802C142.163 63.6835 140.923 62.7246 139.428 62.688C138.604 62.6814 137.474 62.9303 136.483 64.2151C135.536 63.2218 134.352 62.6553 133.059 62.6553C131.887 62.6553 130.186 63.0988 128.397 65.0565C128.238 60.452 128.131 49.0186 130.505 40.947C131.204 39.303 131.513 38.1401 131.547 38.0043C131.663 37.5547 131.412 37.0936 130.973 36.9439C130.534 36.8081 130.057 37.0088 129.874 37.435C129.497 38.3158 129.162 39.2586 128.863 40.2508C127.567 43.2767 124.844 48.0963 119.955 50.5751C111.082 55.0698 105.135 58.2476 103.357 61.3311C103.012 61.9287 102.646 62.6481 102.26 63.4064C101.216 65.4606 99.7852 68.2742 98.5573 68.6367C98.3477 68.7015 98.1636 68.6733 97.9423 68.5469C96.9324 67.966 96.0811 67.0021 95.2576 66.0681C94.0486 64.6962 92.7992 63.2795 90.9801 63.0189L90.6269 62.9679C88.078 62.611 82.7735 61.8632 81.6732 58.9233L81.3848 58.1534C80.3212 55.3032 80.2574 55.1325 79.2253 54.0045C78.4705 53.1825 78.5593 52.8759 78.7556 52.524C78.7717 52.4946 78.7828 52.4663 78.7994 52.4364C78.8488 52.3549 78.9896 52.2507 79.2275 52.2274Z" fill="#464655"/>
</svg>
